<?xml version="1.0" encoding="UTF-8" standalone="no"?>
<!-- Created with Inkscape (http://www.inkscape.org/) -->

<svg
   width="512"
   height="512"
   viewBox="0 0 512 512"
   version="1.1"
   id="svg5"
   xml:space="preserve"
   inkscape:export-filename="nml.svg"
   inkscape:export-xdpi="96"
   inkscape:export-ydpi="96"
   sodipodi:docname="nml.svg"
   inkscape:version="1.2.2 (732a01da63, 2022-12-09)"
   xmlns:inkscape="http://www.inkscape.org/namespaces/inkscape"
   xmlns:sodipodi="http://sodipodi.sourceforge.net/DTD/sodipodi-0.dtd"
   xmlns="http://www.w3.org/2000/svg"
   xmlns:svg="http://www.w3.org/2000/svg"><sodipodi:namedview
     id="namedview7"
     pagecolor="#ffffff"
     bordercolor="#999999"
     borderopacity="1"
     inkscape:showpageshadow="0"
     inkscape:pageopacity="0"
     inkscape:pagecheckerboard="0"
     inkscape:deskcolor="#d1d1d1"
     inkscape:document-units="px"
     showgrid="false"
     inkscape:zoom="1.0029297"
     inkscape:cx="-397.33592"
     inkscape:cy="99.707886"
     inkscape:window-width="3840"
     inkscape:window-height="2089"
     inkscape:window-x="2992"
     inkscape:window-y="-8"
     inkscape:window-maximized="1"
     inkscape:current-layer="layer1" /><defs
     id="defs2" /><g
     inkscape:label="Layer 1"
     inkscape:groupmode="layer"
     id="layer1"><rect
       style="fill:#192961;fill-opacity:1;stroke:#3b69a1;stroke-width:8.52547;stroke-linejoin:round;stroke-dasharray:none;stroke-opacity:1;paint-order:stroke markers fill"
       id="rect2346"
       width="578.27588"
       height="397.80463"
       x="-29.648172"
       y="68.065552" /><path
       style="mix-blend-mode:normal;fill:#ffffff;fill-opacity:1;stroke:#ffffff;stroke-width:8.32016;stroke-dasharray:none;stroke-opacity:1;paint-order:stroke markers fill"
       d="m 383.36927,434.16329 c -27.17001,17.24135 -40.73851,-17.8302 -40.86536,-40.47304 -0.11054,-19.73303 1.94813,-39.41211 1.96371,-62.2211 0.017,-24.86121 6.23245,-52.15241 4.68132,-69.24814 -1.32304,-14.58181 -24.63066,21.91563 -28.79012,32.10876 -3.96688,9.72123 -7.29611,6.45767 -9.56182,46.93614 -1.12546,20.10708 -5.96239,49.74884 -4.17716,70.06606 1.46146,16.63235 -7.42867,30.4415 -16.61284,17.81154 -5.14051,-7.06919 -5.34236,-30.37169 -4.80681,-45.88327 0.56647,-16.40736 4.87726,-37.02123 5.43724,-56.5301 0.49415,-17.21504 5.79389,-62.08951 -11.88034,-54.45498 -16.48302,7.11999 -19.30847,39.64452 -23.31832,61.8721 -2.26176,19.16676 -4.21852,38.45022 -7.63137,57.62118 -3.1944,17.94379 3.69603,48.37542 -15.12005,44.7718 -25.52158,-4.88783 -6.65432,-41.70853 -5.60237,-59.06995 1.05677,-17.4408 5.99528,-37.68449 7.60654,-57.28878 1.55885,-18.96671 11.77316,-62.85673 -8.47138,-58.81828 -36.90783,7.36253 -46.27856,78.60282 -50.69932,65.96394 -8.26959,-23.64263 -1.78021,-32.51605 7.28825,-48.19417 16.71129,-28.89154 41.39057,-58.05677 75.43968,-16.88263 7.14941,-22.71204 44.46659,-23.38406 46.45161,3.40041 2.01957,27.25078 6.47168,8.16755 26.76806,-23.31912 13.51293,-20.9632 40.8388,-5.92673 42.13473,20.33797 1.1875,24.06709 -3.72828,51.17426 -5.55988,70.78976 -2.147,22.9931 -1.52009,44.82755 -2.88993,68.22542 0.62395,12.16611 2.77841,30.54847 17.66509,12.36818 6.01598,-7.34701 19.95748,-32.73912 25.45803,-45.72072 5.50053,-12.98159 3.38628,-11.35179 0.37147,-22.79508 -2.26586,-8.60058 -4.43299,-46.65948 -0.73294,-69.9255 1.41819,-23.9477 9.21462,-67.95179 15.69263,-90.94765 5.07734,-22.7378 13.9322,-40.13076 21.2587,-60.71258 6.93997,-19.49593 29.69625,-34.674971 34.56011,-8.09703 3.05174,16.67585 2.59096,37.31743 -0.38429,55.50654 -3.3618,20.55226 -6.07357,44.11646 -9.16288,60.15139 -4.1911,21.75381 -13.29756,71.18972 -19.21486,91.04751 -15.47738,51.94029 -17.66739,35.77534 -13.90903,44.2783 17.10327,38.6945 32.26472,41.12074 50.31485,14.34463 4.24128,-6.29164 26.29733,-38.0049 6.30602,15.89275 -5.93394,15.99825 -25.33154,26.42723 -35.25965,22.94683 -5.99932,-2.10312 -23.09665,-17.45964 -28.1277,-28.55567 -6.36902,-14.04695 -4.88599,-17.38862 -20.52814,13.17317 -6.95923,13.597 -10.28875,19.49543 -26.09148,29.52341 z m 68.40778,-201.60423 c 4.68218,-20.96887 6.79663,-41.79422 9.04292,-64.07412 1.64267,-16.29297 1.02106,-42.12444 -5.58664,-20.63899 -5.16102,16.78145 -12.40858,30.72915 -16.53469,52.46021 -2.17232,11.44104 -11.86301,72.14971 -12.96558,86.65249 -7.31454,96.21283 4.66861,41.32863 26.04399,-54.39959 z M 78.742369,442.14001 c -19.344257,-1.0663 -13.843488,-24.57608 -12.449071,-42.60358 1.476968,-19.09472 2.74636,-44.2578 4.832819,-64.15995 3.453653,-18.45588 6.680503,-36.16332 2.075837,-54.8236 -8.20734,-26.76734 -27.125461,0.69371 -36.666295,10.14119 -21.907243,21.6929 -7.977597,57.07536 -12.449731,54.75368 C 10.424006,338.35526 3.8652561,318.0328 9.3935822,301.66764 19.468,271.84498 73.889002,226.56341 88.128532,259.99645 c 6.408233,15.04587 4.09984,26.8227 4.179931,32.46851 0.256636,18.09175 21.160447,-32.15929 36.853267,-43.39236 22.78306,-15.78372 26.24685,15.85483 28.14193,34.46745 2.39107,23.48418 4.24342,50.18169 4.14113,64.13862 -0.1408,19.21239 3.43487,37.47104 9.76287,54.30564 2.96411,7.88554 26.9883,-30.95046 39.41188,-54.24653 13.16447,-24.68533 -8.59191,55.60642 -19.59299,66.67009 -59.14929,59.48573 -49.37967,-84.54534 -53.16554,-122.28557 -3.57686,-35.65667 -29.35056,14.29024 -34.87263,27.55347 -4.729204,11.3589 -13.912073,35.42321 -13.650453,56.27148 0.583314,46.48384 0.770243,66.81927 -10.595558,66.19276 z"
       id="path302"
       sodipodi:nodetypes="ssssssssssssssssssscsssssssssssssssssssssssssssssssssssssssssssssss" /></g></svg>
